<mxfile host="65bd71144e">
    <diagram id="RbF-yn-SndgrAfBqBZ8e" name="Page-1">
        <mxGraphModel dx="1057" dy="670" grid="1" gridSize="10" guides="1" tooltips="1" connect="1" arrows="1" fold="1" page="1" pageScale="1" pageWidth="850" pageHeight="1100" math="0" shadow="0">
            <root>
                <mxCell id="0"/>
                <mxCell id="1" parent="0"/>
                <mxCell id="2" value="MediaCow Touch 2 &quot;Paris&quot; - CTCL 2021-2025&lt;br&gt;Description: Audio subsystem diagram&lt;br&gt;Created:&amp;nbsp;January 29, 2025&lt;br&gt;Modified: February 8, 2025" style="text;html=1;strokeColor=none;fillColor=none;align=left;verticalAlign=top;whiteSpace=wrap;rounded=0;" parent="1" vertex="1">
                    <mxGeometry width="260" height="70" as="geometry"/>
                </mxCell>
                <mxCell id="11" style="edgeStyle=none;html=1;exitX=1;exitY=0.5;exitDx=0;exitDy=0;entryX=0;entryY=0.5;entryDx=0;entryDy=0;fontSize=20;startArrow=classic;startFill=1;" edge="1" parent="1" source="3" target="4">
                    <mxGeometry relative="1" as="geometry"/>
                </mxCell>
                <mxCell id="3" value="LattePanda Mu&lt;br&gt;System" style="rounded=0;whiteSpace=wrap;html=1;" parent="1" vertex="1">
                    <mxGeometry y="280" width="240" height="200" as="geometry"/>
                </mxCell>
                <mxCell id="4" value="SP7021&lt;br&gt;SMEC" style="rounded=0;whiteSpace=wrap;html=1;" parent="1" vertex="1">
                    <mxGeometry x="360" y="320" width="120" height="120" as="geometry"/>
                </mxCell>
                <mxCell id="8" value="Idea 1: Split ADC and DAC" style="text;html=1;strokeColor=none;fillColor=none;align=center;verticalAlign=middle;whiteSpace=wrap;rounded=0;fontSize=20;fontStyle=1" vertex="1" parent="1">
                    <mxGeometry y="70" width="260" height="40" as="geometry"/>
                </mxCell>
                <mxCell id="12" value="I2S" style="text;html=1;strokeColor=none;fillColor=none;align=center;verticalAlign=middle;whiteSpace=wrap;rounded=0;fontSize=20;" vertex="1" parent="1">
                    <mxGeometry x="270" y="350" width="60" height="30" as="geometry"/>
                </mxCell>
                <mxCell id="15" value="SP7021&lt;br&gt;SMEC" style="rounded=0;whiteSpace=wrap;html=1;" vertex="1" parent="1">
                    <mxGeometry x="680" y="320" width="120" height="120" as="geometry"/>
                </mxCell>
            </root>
        </mxGraphModel>
    </diagram>
</mxfile>